<?xml version="1.0" standalone="no"?><!DOCTYPE svg PUBLIC "-//W3C//DTD SVG 1.1//EN" "http://www.w3.org/Graphics/SVG/1.1/DTD/svg11.dtd"><svg t="1606741651572" class="icon" viewBox="0 0 1024 1024" version="1.1" xmlns="http://www.w3.org/2000/svg" p-id="3732" xmlns:xlink="http://www.w3.org/1999/xlink" width="200" height="200"><defs><style type="text/css"></style></defs><path d="M387.4 738.7c21.5 128.1 55.6 203.5 123 216 55 10.2 103.9-86.3 129.4-226.6-36.1-13.7-75.5-30.5-118.4-50-45.8 25.7-91.1 45.8-134 60.6zM644.2 285.4c-19.4-129.9-60.5-217.1-133.9-219C456.9 65 402.1 151 375.7 278.8c42.5 16.4 88.2 37.7 136 62.9 45.7-22.6 90.4-41.6 132.5-56.3z" fill="#05A9D9" p-id="3733"></path><path d="M375.8 278.9c-119.5-46.2-213.2-53.1-251 8.6-28.1 45.9 19.8 137.3 118.6 224.5 33.8-27.6 73-55.4 116.4-83.2 0.8-54 6.6-104.5 16-149.9zM764.5 508c-31.5 25.5-68 52.5-108.5 81.3-2.9 49.1-8.4 96-16.2 138.7 124.8 47.4 209 56.5 254.2 3.5 36.1-42.2-22.1-131.9-129.5-223.5z" fill="#99C236" p-id="3734"></path><path d="M359.8 428.8c25.4-16.3 52.2-32.5 80-48.6 24-13.9 48.1-26.6 71.9-38.5-47.8-25.2-93.5-46.4-136-62.9-9.3 45.5-15.1 96-15.9 150zM587.9 636.8c-22.1 15.2-44.4 28.7-66.6 41.3 43 19.5 82.3 36.3 118.4 50 7.8-42.8 13.3-89.6 16.2-138.7-21.5 15.2-44 31-68 47.4z" fill="#009F43" p-id="3735"></path><path d="M243.4 512c-97.3 79.3-148.2 155.8-114.1 218.5 26 47.8 131.2 51.6 258.1 8.1-6.7-40.2-12.3-85.3-17.1-135.6-48.4-28.2-91-59.3-126.9-91zM764.5 508c106.1-85.9 157.5-155 134-221.5-18.4-51.9-123.2-46.9-254.2-1.1 6.4 43 10.6 90.6 12.6 141.6 39.4 26.4 75.7 53.8 107.6 81z" fill="#FDBA3E" p-id="3736"></path><path d="M583.4 381.3c25.4 14.7 49.9 30 73.4 45.7-2-50.9-6.2-98.5-12.6-141.6-42.1 14.7-86.9 33.6-132.5 56.3 23.6 12.4 47.5 25.6 71.7 39.6zM435.3 637.8c-22.8-10.9-44.3-22.6-65.1-34.8 4.9 50.3 10.4 95.4 17.1 135.6 42.9-14.7 88.2-34.8 134-60.6-27.2-12.4-55.9-25.8-86-40.2zM362.3 510.5c-2.2-27.9-2.8-55.1-2.4-81.7-43.4 27.8-82.6 55.6-116.4 83.2 35.9 31.7 78.5 62.8 126.8 91-2.9-29.2-5.5-60-8-92.5z" fill="#009F43" p-id="3737"></path><path d="M658.5 510.5c0 26.8-0.9 53-2.5 78.8 40.6-28.8 77.1-55.8 108.5-81.3-32-27.3-68.2-54.6-107.7-81 1.1 27 1.7 54.9 1.7 83.5z" fill="#009F43" p-id="3738"></path><path d="M656.8 427c-23.4-15.7-47.9-31-73.4-45.7-24.3-14-48.2-27.2-71.7-39.5-23.9 11.9-47.9 24.7-71.9 38.5-27.9 16.1-54.6 32.3-80 48.6-0.4 26.5 0.3 53.8 2.4 81.7 2.5 32.5 5.2 63.3 8 92.5 20.8 12.1 42.3 23.9 65.1 34.8 30.1 14.4 58.8 27.8 86 40.2 22.2-12.5 44.5-26.1 66.6-41.3 23.9-16.4 46.5-32.1 68.1-47.5 1.5-25.8 2.5-52 2.5-78.8 0-28.6-0.6-56.5-1.7-83.5z" fill="#CAC134" p-id="3739"></path></svg>